<svg x="0" y="0" width="48" height="48" version="1.1" xmlns="http://www.w3.org/2000/svg" xmlns:xlink="http://www.w3.org/1999/xlink"><defs><linearGradient x1="11.68966" y1="11.68966" x2="57.52354" y2="57.52354" gradientUnits="userSpaceOnUse" id="color-1"><stop offset="0" stop-color="#000000" stop-opacity="0.7"></stop><stop offset="1" stop-color="#000000" stop-opacity="0"></stop></linearGradient><filter id="dropshadow"><feColorMatrix type="matrix" values="0 0 0 0 .05  0 0 0 0 .15  0 0 0 0 .1  0 0 0 .8 0"></feColorMatrix> <feOffset dx="0" dy="1"></feOffset> <feGaussianBlur stdDeviation="1"></feGaussianBlur> <feComposite in="SourceGraphic"></feComposite></filter></defs><g fill="none" stroke="none" stroke-width="none" stroke-linecap="butt" stroke-linejoin="miter" stroke-miterlimit="none" stroke-dasharray="" stroke-dashoffset="0" font-family="none" font-weight="normal" font-size="none" text-anchor="start" mix-blend-mode="normal"><g fill="#000000" stroke="none" stroke-width="1" stroke-miterlimit="4" font-family="&quot;Open Sans&quot;, sans-serif" font-size="14"></g><path d="M3,24c0,-11.59798 9.40202,-21 21,-21c11.59798,0 21,9.40202 21,21c0,11.59798 -9.40202,21 -21,21c-11.59798,0 -21,-9.40202 -21,-21z" fill="#a82d2d" stroke-width="1" stroke-miterlimit="10" font-family="sans-serif" font-size="12" filter="url(#dropshadow)"></path><path d="M21.87522,44.89384l-9.38453,-9.38453c-0.49498,-0.49497 -0.80103,-1.17888 -0.80103,-1.9346l2.73563,2.73563c0,0 0.00001,0 0.00001,0l-2.73564,-2.73564l0,-19.14941c0,-1.51144 1.22419,-2.73563 2.73563,-2.73563l2.73563,2.73563l0.00001,0l-2.73563,-2.73563l19.14941,0c0.75571,0 1.43962,0.30605 1.9346,0.80103l9.38453,9.38453c0.07021,0.69873 0.10616,1.40756 0.10616,2.12478c0,11.59798 -9.40202,21 -21,21c-0.71723,0 -1.42606,-0.03596 -2.12478,-0.10616z" fill="url(#color-1)" stroke-width="1" stroke-miterlimit="10" font-family="sans-serif" font-size="12"></path><path d="M36.31034,14.42529l0,19.14941c0,1.51144 -1.22419,2.73563 -2.73563,2.73563l-19.14941,0c-1.51144,0 -2.73563,-1.22419 -2.73563,-2.73563l0,-19.14941c0,-1.51144 1.22419,-2.73563 2.73563,-2.73563l19.14941,0c1.51144,0 2.73563,1.22419 2.73563,2.73563z M33.57471,14.42529l-19.14941,0l0,19.14941l19.14941,0z M30.15517,30.83908l-12.31034,0l0,-1.02586c0,-2.05172 4.10345,-3.07758 6.15517,-3.07758c2.05172,0 6.15517,1.02586 6.15517,3.07758z M20.92242,21.26437c0,-1.69609 1.38149,-3.07758 3.07758,-3.07758c1.69609,0 3.07758,1.38149 3.07758,3.07758c0,1.70293 -1.38149,3.07758 -3.07758,3.07758c-1.69609,0 -3.07758,-1.37465 -3.07758,-3.07758z" fill="#ffffff" stroke="none" stroke-width="0" stroke-miterlimit="4" font-family="&quot;Open Sans&quot;, sans-serif" font-size="14"></path></g></svg>